<?xml version="1.0" standalone="no"?>
<!DOCTYPE svg PUBLIC "-//W3C//DTD SVG 20010904//EN"
 "http://www.w3.org/TR/2001/REC-SVG-20010904/DTD/svg10.dtd">
<svg version="1.0" xmlns="http://www.w3.org/2000/svg"
 width="617.000000pt" height="617.000000pt" viewBox="0 0 617.000000 617.000000"
 preserveAspectRatio="xMidYMid meet">
<metadata>
Created by potrace 1.11, written by Peter Selinger 2001-2013
</metadata>
<g transform="translate(0.000000,617.000000) scale(0.100000,-0.100000)"
fill="#000000" stroke="none">
<path d="M2955 5379 c-11 -6 -40 -37 -65 -70 -25 -33 -63 -83 -86 -112 -59
-76 -178 -237 -259 -352 -39 -55 -88 -125 -110 -155 -112 -158 -320 -474 -380
-580 -21 -36 -52 -87 -70 -115 -49 -75 -174 -315 -258 -495 -149 -318 -247
-614 -247 -744 0 -29 -5 -78 -10 -107 -19 -97 -21 -290 -4 -416 9 -65 19 -138
21 -163 3 -24 11 -53 18 -65 7 -11 15 -38 19 -61 7 -50 27 -97 118 -282 68
-139 155 -269 214 -322 16 -14 40 -39 54 -56 49 -58 266 -218 328 -242 10 -3
42 -20 73 -38 85 -48 309 -120 434 -140 211 -34 520 -17 685 38 166 55 194 67
345 148 161 87 315 218 448 383 74 92 86 110 152 224 93 160 168 408 186 616
17 188 -18 500 -75 677 -7 25 -26 83 -40 130 -24 76 -50 145 -76 205 -5 11
-33 76 -63 145 -53 122 -196 409 -215 433 -5 7 -29 48 -52 92 -24 44 -67 117
-96 162 -30 46 -54 86 -54 90 0 5 -18 32 -40 61 -22 29 -40 55 -40 59 0 13
-71 112 -115 158 -25 28 -66 79 -91 115 -62 91 -139 201 -158 225 -9 11 -26
35 -38 53 -64 92 -86 121 -120 161 -21 24 -38 50 -38 57 0 7 -6 17 -13 21 -7
4 -23 24 -34 43 -12 20 -33 46 -47 59 -14 14 -26 29 -26 34 0 11 -67 96 -95
119 -22 20 -50 22 -80 7z m270 -2207 c232 -79 364 -194 491 -427 98 -181 101
-476 7 -652 -96 -180 -183 -278 -311 -354 -162 -96 -305 -127 -501 -109 -279
25 -513 200 -643 480 -34 73 -67 218 -68 296 -1 236 150 522 347 654 40 27 83
52 95 55 13 4 34 14 47 22 14 9 47 22 75 30 28 8 65 18 81 23 17 5 95 8 175 6
113 -3 158 -8 205 -24z"/>
</g>
</svg>
