<svg xmlns="http://www.w3.org/2000/svg" width="438.3" height="553.2"><g fill="#182b34"><circle cx="8" cy="8" r="8" transform="translate(295.61 69.8)"/><circle cx="8" cy="8" r="8" transform="translate(295.61 107.6)"/><circle cx="8" cy="8" r="8" transform="translate(295.61 31.9)"/><circle cx="8" cy="8" r="8" transform="translate(295.61 183.3)"/><circle cx="8" cy="8" r="8" transform="translate(295.61 145.5)"/><circle cx="8" cy="8" r="8" transform="translate(422.3 31.9)"/><circle cx="8" cy="8" r="8" transform="translate(295.61)"/><circle cx="8" cy="8" r="8" transform="translate(295.61 221.2)"/><circle cx="8" cy="8" r="8" transform="translate(337.84 107.6)"/><circle cx="8" cy="8" r="8" transform="translate(422.3 145.5)"/><circle cx="8" cy="8" r="8" transform="translate(422.3 107.6)"/><circle cx="8" cy="8" r="8" transform="translate(295.61 502.8)"/><circle cx="8" cy="8" r="8" transform="translate(295.61 468.5)"/><circle cx="8" cy="8" r="8" transform="translate(337.84)"/><circle cx="8" cy="8" r="8" transform="translate(295.61 259)"/><circle cx="8" cy="8" r="8" transform="translate(337.84 31.9)"/><circle cx="8" cy="8" r="8" transform="translate(295.61 434.2)"/><circle cx="8" cy="8" r="8" transform="translate(295.61 296.9)"/><circle cx="8" cy="8" r="8" transform="translate(295.61 331.2)"/><circle cx="8" cy="8" r="8" transform="translate(295.61 399.9)"/><circle cx="8" cy="8" r="8" transform="translate(295.61 365.5)"/><circle cx="8" cy="8" r="8" transform="translate(337.84 69.8)"/><circle cx="8" cy="8" r="8" transform="translate(422.3 183.3)"/><circle cx="8" cy="8" r="8" transform="translate(422.3 331.2)"/><circle cx="8" cy="8" r="8" transform="translate(422.3 296.9)"/><circle cx="8" cy="8" r="8" transform="translate(422.3 259)"/><circle cx="8" cy="8" r="8" transform="translate(422.3 365.5)"/><circle cx="8" cy="8" r="8" transform="translate(422.3 221.2)"/><circle cx="8" cy="8" r="8" transform="translate(422.3 399.9)"/><circle cx="8" cy="8" r="8" transform="translate(422.3 502.8)"/><circle cx="8" cy="8" r="8" transform="translate(422.3 434.2)"/><circle cx="8" cy="8" r="8" transform="translate(422.3 468.5)"/><circle cx="8" cy="8" r="8" transform="translate(295.61 537.2)"/><circle cx="8" cy="8" r="8" transform="translate(380.3 537.2)"/><circle cx="8" cy="8" r="8" transform="translate(380.3 502.8)"/><circle cx="8" cy="8" r="8" transform="translate(380.3 468.5)"/><circle cx="8" cy="8" r="8" transform="translate(337.84 145.5)"/><circle cx="8" cy="8" r="8" transform="translate(337.84 502.8)"/><circle cx="8" cy="8" r="8" transform="translate(337.84 434.2)"/><circle cx="8" cy="8" r="8" transform="translate(337.84 537.2)"/><circle cx="8" cy="8" r="8" transform="translate(337.84 468.5)"/><circle cx="8" cy="8" r="8" transform="translate(337.84 365.5)"/><circle cx="8" cy="8" r="8" transform="translate(337.84 399.9)"/><circle cx="8" cy="8" r="8" transform="translate(337.84 183.3)"/><circle cx="8" cy="8" r="8" transform="translate(337.84 331.2)"/><circle cx="8" cy="8" r="8" transform="translate(337.84 221.2)"/><circle cx="8" cy="8" r="8" transform="translate(337.84 259)"/><circle cx="8" cy="8" r="8" transform="translate(337.84 296.9)"/><circle cx="8" cy="8" r="8" transform="translate(380.3 183.3)"/><circle cx="8" cy="8" r="8" transform="translate(380.3 296.9)"/><circle cx="8" cy="8" r="8" transform="translate(380.3 331.2)"/><circle cx="8" cy="8" r="8" transform="translate(380.3 31.9)"/><circle cx="8" cy="8" r="8" transform="translate(380.3 259)"/><circle cx="8" cy="8" r="8" transform="translate(380.3 399.9)"/><circle cx="8" cy="8" r="8" transform="translate(380.3 365.5)"/><circle cx="8" cy="8" r="8" transform="translate(380.3 107.6)"/><circle cx="8" cy="8" r="8" transform="translate(380.3 69.8)"/><circle cx="8" cy="8" r="8" transform="translate(380.3 434.2)"/><circle cx="8" cy="8" r="8" transform="translate(380.3 221.2)"/><circle cx="8" cy="8" r="8" transform="translate(380.3 145.5)"/><circle cx="8" cy="8" r="8" transform="translate(422.3 69.8)"/><circle cx="8" cy="8" r="8" transform="translate(253.38 221.2)"/><circle cx="8" cy="8" r="8" transform="translate(253.38 468.5)"/><circle cx="8" cy="8" r="8" transform="translate(253.38 107.6)"/><circle cx="8" cy="8" r="8" transform="translate(253.38 145.5)"/><circle cx="8" cy="8" r="8" transform="translate(253.38 259)"/><circle cx="8" cy="8" r="8" transform="translate(253.38 331.2)"/><circle cx="8" cy="8" r="8" transform="translate(253.38 434.2)"/><circle cx="8" cy="8" r="8" transform="translate(253.38 399.9)"/><circle cx="8" cy="8" r="8" transform="translate(253.38 365.5)"/><circle cx="8" cy="8" r="8" transform="translate(253.38 31.9)"/><circle cx="8" cy="8" r="8" transform="translate(253.38 296.9)"/><circle cx="8" cy="8" r="8" transform="translate(253.38 183.3)"/><circle cx="8" cy="8" r="8" transform="translate(211.15 296.9)"/><circle cx="8" cy="8" r="8" transform="translate(211.15 365.5)"/><circle cx="8" cy="8" r="8" transform="translate(211.15 331.2)"/><circle cx="8" cy="8" r="8" transform="translate(211.15 259)"/><circle cx="8" cy="8" r="8" transform="translate(211.15 221.2)"/><circle cx="8" cy="8" r="8" transform="translate(211.15 468.5)"/><circle cx="8" cy="8" r="8" transform="translate(211.15 537.2)"/><circle cx="8" cy="8" r="8" transform="translate(211.15 502.8)"/><circle cx="8" cy="8" r="8" transform="translate(211.15 399.9)"/><circle cx="8" cy="8" r="8" transform="translate(211.15 183.3)"/><circle cx="8" cy="8" r="8" transform="translate(211.15 434.2)"/><circle cx="8" cy="8" r="8" transform="translate(253.38 69.8)"/><circle cx="8" cy="8" r="8" transform="translate(42 331.2)"/><circle cx="8" cy="8" r="8" transform="translate(42 145.5)"/><circle cx="8" cy="8" r="8" transform="translate(42 221.2)"/><circle cx="8" cy="8" r="8" transform="translate(168.92 502.8)"/><circle cx="8" cy="8" r="8" transform="translate(42 365.5)"/><circle cx="8" cy="8" r="8" transform="translate(42 296.9)"/><circle cx="8" cy="8" r="8" transform="translate(42 107.6)"/><circle cx="8" cy="8" r="8" transform="translate(42 399.9)"/><circle cx="8" cy="8" r="8" transform="translate(42 434.2)"/><circle cx="8" cy="8" r="8" transform="translate(42 183.3)"/><circle cx="8" cy="8" r="8" transform="translate(0 296.9)"/><circle cx="8" cy="8" r="8" transform="translate(253.38)"/><circle cx="8" cy="8" r="8" transform="translate(253.38 537.2)"/><circle cx="8" cy="8" r="8" transform="translate(0 331.2)"/><circle cx="8" cy="8" r="8" transform="translate(253.38 502.8)"/><circle cx="8" cy="8" r="8" transform="translate(0 259)"/><circle cx="8" cy="8" r="8" transform="translate(0 365.5)"/><circle cx="8" cy="8" r="8" transform="translate(0 183.3)"/><circle cx="8" cy="8" r="8" transform="translate(0 221.2)"/><circle cx="8" cy="8" r="8" transform="translate(42 259)"/><circle cx="8" cy="8" r="8" transform="translate(126.69 434.2)"/><circle cx="8" cy="8" r="8" transform="translate(126.69 502.8)"/><circle cx="8" cy="8" r="8" transform="translate(126.69 468.5)"/><circle cx="8" cy="8" r="8" transform="translate(168.92 107.6)"/><circle cx="8" cy="8" r="8" transform="translate(168.92 31.9)"/><circle cx="8" cy="8" r="8" transform="translate(168.92 69.8)"/><circle cx="8" cy="8" r="8" transform="translate(126.69 296.9)"/><circle cx="8" cy="8" r="8" transform="translate(126.69 259)"/><circle cx="8" cy="8" r="8" transform="translate(126.69 399.9)"/><circle cx="8" cy="8" r="8" transform="translate(126.69 365.5)"/><circle cx="8" cy="8" r="8" transform="translate(126.69 331.2)"/><circle cx="8" cy="8" r="8" transform="translate(168.92 259)"/><circle cx="8" cy="8" r="8" transform="translate(168.92 365.5)"/><circle cx="8" cy="8" r="8" transform="translate(168.92 434.2)"/><circle cx="8" cy="8" r="8" transform="translate(168.92 399.9)"/><circle cx="8" cy="8" r="8" transform="translate(168.92 145.5)"/><circle cx="8" cy="8" r="8" transform="translate(168.92 537.2)"/><circle cx="8" cy="8" r="8" transform="translate(168.92 468.5)"/><circle cx="8" cy="8" r="8" transform="translate(168.92 183.3)"/><circle cx="8" cy="8" r="8" transform="translate(168.92 331.2)"/><circle cx="8" cy="8" r="8" transform="translate(168.92 221.2)"/><circle cx="8" cy="8" r="8" transform="translate(126.69 221.2)"/><circle cx="8" cy="8" r="8" transform="translate(168.92 296.9)"/><circle cx="8" cy="8" r="8" transform="translate(211.15 107.6)"/><circle cx="8" cy="8" r="8" transform="translate(84.46 183.3)"/><circle cx="8" cy="8" r="8" transform="translate(84.46 468.5)"/><circle cx="8" cy="8" r="8" transform="translate(84.46 107.6)"/><circle cx="8" cy="8" r="8" transform="translate(84.46 145.5)"/><circle cx="8" cy="8" r="8" transform="translate(84.46 69.8)"/><circle cx="8" cy="8" r="8" transform="translate(211.15 145.5)"/><circle cx="8" cy="8" r="8" transform="translate(211.15 69.8)"/><circle cx="8" cy="8" r="8" transform="translate(211.15)"/><circle cx="8" cy="8" r="8" transform="translate(211.15 31.9)"/><circle cx="8" cy="8" r="8" transform="translate(84.46 296.9)"/><circle cx="8" cy="8" r="8" transform="translate(126.69 69.8)"/><circle cx="8" cy="8" r="8" transform="translate(126.69 31.9)"/><circle cx="8" cy="8" r="8" transform="translate(126.69 145.5)"/><circle cx="8" cy="8" r="8" transform="translate(84.46 399.9)"/><circle cx="8" cy="8" r="8" transform="translate(126.69 107.6)"/><circle cx="8" cy="8" r="8" transform="translate(84.46 221.2)"/><circle cx="8" cy="8" r="8" transform="translate(126.69 183.3)"/><circle cx="8" cy="8" r="8" transform="translate(84.46 434.2)"/><circle cx="8" cy="8" r="8" transform="translate(84.46 259)"/><circle cx="8" cy="8" r="8" transform="translate(84.46 365.5)"/><circle cx="8" cy="8" r="8" transform="translate(84.46 331.2)"/></g></svg>