<svg xmlns="http://www.w3.org/2000/svg" width="560.8" height="278.204"><path d="M174.5 226.504v-.8c-.7 1.4-1.3 2.7-1.9 4.1a3.91 3.91 0 001.9-3.3zm-59.4-162.4a4.149 4.149 0 004.3-4.3 4.02 4.02 0 00-4.1-4.2 4.254 4.254 0 10-.2 8.5zm332.8 65.4a4.241 4.241 0 00-4.1 4.6c.2 2.6 1.8 3.9 4.3 4.1a4.232 4.232 0 004.3-4.4 4.434 4.434 0 00-4.5-4.3zm-258.7-65.4a4.2 4.2 0 004.2-4.1 4.291 4.291 0 00-4.3-4.4c-2.5.1-4.1 1.4-4.3 4a4.172 4.172 0 004.4 4.5zm-37 74a4.42 4.42 0 004.4-4.3 4.489 4.489 0 00-4.4-4.3 4.3 4.3 0 000 8.6zm369.7 74a4.3 4.3 0 10-4.3-4 4.291 4.291 0 004.3 4zm-1.3-74.2c-.7-1.2-1.3-2.4-2-3.6l-.9-1.5a2.769 2.769 0 00-.1.9 4.552 4.552 0 003 4.2zm-350.4-55.3a4.3 4.3 0 10-.1-8.6 4.292 4.292 0 00-4.2 4.2 4.352 4.352 0 004.3 4.4zm74.1 0a4.079 4.079 0 004.2-4.1 4.149 4.149 0 00-4.2-4.4 4.419 4.419 0 00-4.4 4.3 4.1 4.1 0 004.4 4.2zm275.2 195.5h4.9a4.457 4.457 0 00-2.6-.8 5.725 5.725 0 00-2.3.8zm-201-130.1a4.177 4.177 0 00-4.7 4.2 4.322 4.322 0 008.6.6 4.326 4.326 0 00-3.9-4.8zm73.6-74a4.232 4.232 0 00-4.4 4.3 4.294 4.294 0 004.1 4.3 4.215 4.215 0 004.5-4.1 4.294 4.294 0 00-4.2-4.5zm-352.9 203.9h4.2a4.688 4.688 0 00-2.1-.6 3.936 3.936 0 00-2.1.6zm73.7.2h4.8a4.85 4.85 0 00-2.1-.8 4.781 4.781 0 00-2.7.8zM244 .004a4.355 4.355 0 00-4.1 4.6 4.294 4.294 0 004.3 4.1 4.354 4.354 0 004.3-4.4 4.439 4.439 0 00-4.5-4.3zm-202.8 138.2a4.1 4.1 0 004.2-4.4 4.149 4.149 0 00-4.3-4.3 4.351 4.351 0 00.1 8.7zm73.9-.1a4.288 4.288 0 004.4-4.3 4.507 4.507 0 00-4.4-4.4 4.419 4.419 0 00-4.3 4.4 4.267 4.267 0 004.3 4.3zm110.9-8.6a4.351 4.351 0 104.5 4.3 4.316 4.316 0 00-4.5-4.3zm111 0a4.487 4.487 0 00-4.3 4.4 4.423 4.423 0 004.5 4.2 4.301 4.301 0 00-.2-8.6zm37 0a4.02 4.02 0 00-4.1 4.2 4.159 4.159 0 004.1 4.5 4.291 4.291 0 004.3-4.4 4.041 4.041 0 00-4.3-4.3zm-221.9-65.4a4.334 4.334 0 004.4-4.2 4.147 4.147 0 00-4.3-4.3 4.015 4.015 0 00-4.2 4.3 4.141 4.141 0 004.1 4.2zm-110.7 139.3a4.352 4.352 0 00-4.4 4.3 4.291 4.291 0 004.3 4.4c2.5-.1 4.1-1.5 4.2-4.1a4.241 4.241 0 00-4.1-4.6zm73.7 0a4.161 4.161 0 00-4.2 4.2 4.419 4.419 0 004.3 4.4 4.3 4.3 0 10-.1-8.6zm259 0a4.138 4.138 0 00-4.2 4.1 4.215 4.215 0 108.4.7 4.271 4.271 0 00-4.2-4.8zm74 8.6c2.5-.2 4-1.5 4.2-4.1a4.215 4.215 0 00-4.1-4.5 4.29 4.29 0 00-4.4 4.3 4.094 4.094 0 004.3 4.3zm37.1 0a4.744 4.744 0 004.3-4.6 4.8 4.8 0 00-4.5-4.1 4.612 4.612 0 00-4.2 4.3 4.2 4.2 0 004.4 4.4zm-185.3-82.5a4.306 4.306 0 00.2 8.6 4.205 4.205 0 004.2-4.4 4.1 4.1 0 00-4.4-4.2zm-73.9-73.9a4.226 4.226 0 00-4 4.6 3.993 3.993 0 004.2 4 4.355 4.355 0 004.2-4.5 4.129 4.129 0 00-4.4-4.1zm37.1 8.5a4.354 4.354 0 004.3-4.4 4.14 4.14 0 00-4.2-4.1 4.581 4.581 0 00-4.5 4.3 4.272 4.272 0 004.4 4.2zm55.2-55.4a4.439 4.439 0 004.1-4.3 4.578 4.578 0 00-4.4-4.4 4.419 4.419 0 00-4.3 4.4 4.75 4.75 0 004.6 4.3zm18.8 55.5a4.366 4.366 0 004.1-4.3 4.228 4.228 0 00-4.1-4.3 4.508 4.508 0 00-4.5 4.3 4.735 4.735 0 004.5 4.3zm36.9-8.6c-2.5 0-4 1.7-4 4.2 0 2.4 1.8 4.5 3.9 4.5a4.42 4.42 0 004.4-4.3 4.121 4.121 0 00-4.3-4.4zm-221.6 147.8a4.269 4.269 0 00-4.3 4 4.255 4.255 0 104.3-4zm36.7-176.4a4 4 0 004.3-3.9 4.41 4.41 0 00-4.1-4.5 4.042 4.042 0 00-4.4 4.2c-.2 2.3 1.6 4.1 4.2 4.2zm128.9 47a4.3 4.3 0 000 8.6 4.3 4.3 0 100-8.6zm147.9 74c-2.7.1-4.2 1.7-4.1 4.3a4.155 4.155 0 004.5 4.1 4.055 4.055 0 004-4.2 4.209 4.209 0 00-4.4-4.2zm-221.7-36.8a4.211 4.211 0 00-4.4 4.2 4.1 4.1 0 004.4 4.2 4.419 4.419 0 004.3-4.4 4.148 4.148 0 00-4.3-4zm-111.1 147.8a4.149 4.149 0 00-4.2 4.4 4.268 4.268 0 004.4 4.2 4.171 4.171 0 004-4.6 3.993 3.993 0 00-4.2-4zm263.1 4.2a4.2 4.2 0 00-4.1-4.2h-.6c.8 3 1.4 5.7 2 8.2a4.163 4.163 0 002.7-4zm-320.1 14.8h4.3a5.225 5.225 0 00-2.1-.7 5.677 5.677 0 00-2.2.7zm73.6.2h4.9a4.173 4.173 0 00-2.5-1 5.134 5.134 0 00-2.4 1zm295.8 0h5.1a3.566 3.566 0 00-2.3-.8 3.749 3.749 0 00-2.8.8zm111.1-.1h4.2v-.3a4.756 4.756 0 00-1.8-.5 4.31 4.31 0 00-2.4.8zm-478.5-140a4.654 4.654 0 004.5-4.3 4.8 4.8 0 00-4.1-4.4 4.577 4.577 0 00-4.5 4.3 4.463 4.463 0 004.1 4.4zm239.8-26.9a3.87 3.87 0 00-4.1 3.8 4.377 4.377 0 004.2 4.6 4.233 4.233 0 004.5-4.2 4.382 4.382 0 00-4.6-4.2zm-147.5 110.7a4.255 4.255 0 10-.4 8.5 5.136 5.136 0 002.5-.6c.6-1.4 1.3-2.7 1.9-4.1a4.119 4.119 0 00-4-3.8zm-59.5-51.1a4.6 4.6 0 004.2 4.2 4.489 4.489 0 004.4-4.3 4.363 4.363 0 00-4.2-4.2 4.561 4.561 0 00-4.4 4.3zm170-170.8a4.7 4.7 0 00-4.1 4.4 4.816 4.816 0 004.5 4.3 4.7 4.7 0 004.1-4.4 4.577 4.577 0 00-4.5-4.3zm110.9 222c-2.7.2-3.9 1.8-4.1 4.3-.2 2.4 1.9 4.2 4.5 4.1a4.294 4.294 0 004.1-4.3 4.1 4.1 0 00-4.5-4.1zm93.4-83.9c2.1-.1 4.3-2.2 4.3-4.2a4.729 4.729 0 00-4.8-4.4 4.534 4.534 0 00-3.9 4.5 4.38 4.38 0 004.4 4.1zm-295.9-8.6a4.42 4.42 0 00-4.4 4.3 4.3 4.3 0 108.6 0 4.611 4.611 0 00-4.2-4.3zm-18.9-18.3a4.178 4.178 0 00-4.5 4.2 4.3 4.3 0 008.6.1 3.989 3.989 0 00-4.1-4.3zm277.8 129.5c-2.5 0-4.3 1.5-4.4 3.9a4.432 4.432 0 004.1 4.6 4.5 4.5 0 004.4-4.4 3.884 3.884 0 00-4.1-4.1zm-185-111.2a4.654 4.654 0 00-4.5 4.3 4.42 4.42 0 004.4 4.3 4.3 4.3 0 00.1-8.6zm258.9 45.6a4.3 4.3 0 10-4.4-4.3 4.639 4.639 0 004.4 4.3zm-258.8-148.1a4.142 4.142 0 004-4.3 4.075 4.075 0 00-4.2-4.1 4.211 4.211 0 10.2 8.4zm-167.3 232c-2.5.2-3.9 1.7-4 4.3a4.268 4.268 0 004.3 4.3 3.966 3.966 0 004.1-4.4 4.042 4.042 0 00-4.4-4.2zm296-213.3a4.354 4.354 0 004.3-4.4c-.1-2.4-1.9-4-4.6-3.9a3.882 3.882 0 00-4 4.2 4.6 4.6 0 004.3 4.1zm74 213.3a4.149 4.149 0 00-4.3 4.3 4.042 4.042 0 004.3 4.3 4.346 4.346 0 004.2-4.1 4.236 4.236 0 00-4.2-4.5zm37 0a4.14 4.14 0 00-4.2 4.1c0 2.6 1.3 4.1 3.9 4.4a3.989 3.989 0 004.5-4.1 4.1 4.1 0 00-4.2-4.4zm-202.9-203.4a4.079 4.079 0 00-4.1 4.2c0 2.7 1.6 4.4 4.1 4.3a4.016 4.016 0 004.3-4.2 4.149 4.149 0 00-4.3-4.3zm148.1 8.6a4.028 4.028 0 004-4.5c-.1-2.6-1.7-3.9-4.2-4a4.1 4.1 0 00-4.2 4.4 4.19 4.19 0 004.4 4.1zm-278.1 120.9a4.292 4.292 0 00-4.2 4.2 4.149 4.149 0 004.3 4.3 4.042 4.042 0 004.3-4.3 4.209 4.209 0 00-4.4-4.2zm295.6-102.6a4.149 4.149 0 004.5-4.1 4.284 4.284 0 00-3.9-4.4 4.261 4.261 0 10-.6 8.5zm-313.5-55.6a4.153 4.153 0 004.4-4.2 2.2 2.2 0 00-.1-.8c-2.6 1.2-5.1 2.4-7.6 3.6a3.946 3.946 0 003.3 1.4zM96 82.504a4.1 4.1 0 004.4-4.2c0-2.6-1.7-4.4-4.2-4.3a4.254 4.254 0 00-.2 8.5zm111-8.5a4.438 4.438 0 00-4.2 4.2 4.489 4.489 0 004.3 4.4c2.4 0 4.1-1.9 4.1-4.5a3.961 3.961 0 00-4.2-4.1zm221.9 8.5a4.15 4.15 0 004.4-3.9 4.206 4.206 0 10-4.4 3.9zm-332.6 28.7a4.079 4.079 0 00-4.2 4.1 4.291 4.291 0 004.3 4.4 4.044 4.044 0 004.2-4.4 4.163 4.163 0 00-4.3-4.1zm295.7 0a3.964 3.964 0 00-4.2 4.1 4.121 4.121 0 004.3 4.4 4.211 4.211 0 004.2-4.4 4.047 4.047 0 00-4.3-4.1zm74 8.4a4.3 4.3 0 004.2-4.5 3.948 3.948 0 00-4.3-3.9 4.078 4.078 0 00-4.2 4.1 4.15 4.15 0 004.3 4.3zm-332.5 28.3a4.3 4.3 0 00-4.6 4.1 4.227 4.227 0 004.3 4.4 4.139 4.139 0 004.2-4.1 4.1 4.1 0 00-3.9-4.4zm110.6.1a4.1 4.1 0 00-4.2 4.4 4.141 4.141 0 004.2 4.1 4.42 4.42 0 004.4-4.3 4.209 4.209 0 00-4.4-4.2zm-73.6 8.5a4.294 4.294 0 004.1-4.3 4 4 0 00-4.5-4.1 4.139 4.139 0 00-4.1 4.2 4.181 4.181 0 004.5 4.2zm221.6 0a4.225 4.225 0 004.2-4.2 4.044 4.044 0 00-4.4-4.2 3.963 3.963 0 00-4.2 4.1 4.42 4.42 0 004.4 4.3zm56.2 18.6a4.351 4.351 0 004-4.3 4.612 4.612 0 00-4.2-4.3 4.732 4.732 0 00-4.4 4.4 4.515 4.515 0 004.6 4.2zm-56.4 10a4.225 4.225 0 00-4.2 4.2 4.303 4.303 0 108.6-.3 4.219 4.219 0 00-4.4-3.9zm110.9 0a4.255 4.255 0 00.1 8.5 4.232 4.232 0 004.4-4.3 4.125 4.125 0 00-4.5-4.2zm-424.4 18.3a4.354 4.354 0 00-4.3 4.4 4.516 4.516 0 004.2 4.2c2.2 0 4.5-2.3 4.4-4.4a4.885 4.885 0 00-4.3-4.2zm106.4 4.1v.4c1-1.4 1.9-2.8 2.9-4.1a4.087 4.087 0 00-2.9 3.7zm-162.5 51.5a4.3 4.3 0 104.3 4.4 4.225 4.225 0 00-4.3-4.4zm462.4 18.4a3.861 3.861 0 00-2 .8h4.6a3.66 3.66 0 00-2.6-.8zm-351.6-194.9a4.14 4.14 0 004.2-4.1 4.206 4.206 0 10-8.4-.4 4.125 4.125 0 004.2 4.5zm222.1-73.8a4.169 4.169 0 002.4-.9c-2.1-.6-4.2-1.1-6.3-1.6a4.306 4.306 0 003.9 2.5zm-202.8 166.3c2.1-.2 4.2-2.3 4.1-4.4a4.883 4.883 0 00-4.3-4.2 4.519 4.519 0 00-4.2 4.6 4.361 4.361 0 004.4 4zm73.8-8.5a4.1 4.1 0 00-4.2 4.4 4.313 4.313 0 001.2 2.9c2.4-1.1 4.8-2.1 7.3-3.1v-.1c0-2-2.1-4-4.3-4.1zm-130-10a4.174 4.174 0 004.3-4.4 4 4 0 00-4.5-4.1 4.146 4.146 0 00-4 4.3 4.225 4.225 0 004.2 4.2zm-74 37.1a4.149 4.149 0 004.3-4.3 4.211 4.211 0 00-4.4-4.2 4.025 4.025 0 00-4 4.3 4.275 4.275 0 004.1 4.2zm148-156.2a4 4 0 00-4.2 4 4.42 4.42 0 004.4 4.3 4.359 4.359 0 004.2-4.5c0-2.2-1.9-3.8-4.4-3.8zm369.7 221.6a4.149 4.149 0 00-4.2 4.4 4.21 4.21 0 004.5 4.1 4.32 4.32 0 003.9-4.5 4.055 4.055 0 00-4.2-4zm-110.9 0c-2 .3-3.8 1.2-4 3.7a4.224 4.224 0 108.4.8 4.331 4.331 0 00-4.4-4.5zm-369.6 0a4.301 4.301 0 00-.2 8.6 4.292 4.292 0 004.2-4.2 4.17 4.17 0 00-4-4.4zm-17.7-92.5c-2.2-.4-4.5 1.8-4.7 4a4.565 4.565 0 004.2 4.5 4.12 4.12 0 004.2-4 4.023 4.023 0 00-3.7-4.5zm54.7 18.6a4.231 4.231 0 00-4.4 4 4.178 4.178 0 004.2 4.5c2.7 0 4.3-1.6 4.3-4.2a4.1 4.1 0 00-4.1-4.3zm18.8-92.7a4.654 4.654 0 00-4.3 4.5 4.316 4.316 0 008.6-.1 4.639 4.639 0 00-4.3-4.4zm332.7 0a4.426 4.426 0 00-4.2 4.5 4.007 4.007 0 004.3 3.9 3.941 3.941 0 004.2-4 4.354 4.354 0 00-4.3-4.4zm-240.7-83.8a4.059 4.059 0 004-4.2v-.4c-2.7.6-5.4 1.2-8 1.8a4.57 4.57 0 004 2.8zm19 83.9a4.271 4.271 0 00-4.2 4.4 3.761 3.761 0 004.2 3.9 4.085 4.085 0 004.3-4 4.4 4.4 0 00-4.3-4.3zm-37.3 0c-2.2.1-4.4 2.4-4.1 4.6.3 2.6 1.9 3.8 4.4 3.8a3.937 3.937 0 004.1-4.1 4.416 4.416 0 00-4.4-4.3zm148.2-65.5a4.055 4.055 0 004.1-4.1 4.28 4.28 0 00-4-4.3 4.214 4.214 0 10-.1 8.4zm17.6 55.6a4.584 4.584 0 004.7-4.1 4.49 4.49 0 00-4.2-4.5 4.015 4.015 0 00-4.2 4.1 4.157 4.157 0 003.7 4.5zm-73.6-8.6a4.292 4.292 0 00-4.2 4.2 4.439 4.439 0 004.1 4.3 4.618 4.618 0 004.4-4.1 4.419 4.419 0 00-4.3-4.4zm129.9-9.8a4.079 4.079 0 004.1-4.2 4.153 4.153 0 00-4.2-4.4 4.61 4.61 0 00-4.3 4.2 4.9 4.9 0 004.4 4.4zm-369.6 176.5a4.079 4.079 0 00-4.4 3.8 4.575 4.575 0 004.1 4.6 4.487 4.487 0 004.4-4.3 4.054 4.054 0 00-4.1-4.1zm276.6-195c2.2.1 4.3-2.1 4.4-4.4a4 4 0 00-4.2-4c-2.5 0-4.3 1.5-4.4 3.8a4.589 4.589 0 004.2 4.6zm-74 0a4.65 4.65 0 004.5-4.3 4.323 4.323 0 00-8.6-.5 4.692 4.692 0 004.1 4.8zm217.7 180.5a4 4 0 004.1 4.1 3.948 3.948 0 004.3-3.9 4.159 4.159 0 00-4.1-4.5 4.207 4.207 0 00-4.3 4.3zm-402.5-41.1a4.2 4.2 0 00.1 8.4 4.1 4.1 0 004.2-4.4 4.209 4.209 0 00-4.3-4zm129.9-18.6a4.613 4.613 0 00-4.3 4.2 4.494 4.494 0 004.5 4.2 4.618 4.618 0 004.1-4.4 4.424 4.424 0 00-4.3-4zm-162.5-14a6.051 6.051 0 00-.2-1.5c-.8 1.7-1.6 3.5-2.4 5.2a4.285 4.285 0 002.6-3.7zm476.6 4a4.255 4.255 0 00-.4-8.5 4.255 4.255 0 00.4 8.5zm-74.1-8.5a4.138 4.138 0 00-4.2 4.1 4.029 4.029 0 003.9 4.4 4.159 4.159 0 004.5-4.1 3.993 3.993 0 00-4.2-4.4zm-369.8 0c-2.6.1-4 1.5-4.2 4.1-.2 2.5 1.6 4.3 4.2 4.4a4 4 0 004.2-4c0-2.6-1.8-4.6-4.2-4.5zm351.9-18.5a4.91 4.91 0 00-4.6 4.3 4.786 4.786 0 004.2 4.3 4.013 4.013 0 004.3-4.2 4.156 4.156 0 00-3.9-4.4zm145.8 119c-.4-2.1-.7-4.3-1.2-6.6a4.793 4.793 0 00-1.1 2.6 4.731 4.731 0 002.3 4zm-330.9-221.6a4.153 4.153 0 004.4-4.2 4.423 4.423 0 00-4.5-4.2 4.213 4.213 0 00-4 4.3 3.884 3.884 0 004.1 4.1zm272.7 88.1a4.226 4.226 0 004 4.6 3.962 3.962 0 004.3-3.7c-1-1.5-2.1-3.1-3.1-4.6-.3 0-.5-.1-.8-.1a4.015 4.015 0 00-4.4 3.8zm-490.4 92.8a4.6 4.6 0 00-1.8-3.7c-.8 2.7-1.5 5.3-2.1 7.9a4.249 4.249 0 003.9-4.2zm-5.8 70h3.5a3.287 3.287 0 00-1.7-.4 3.425 3.425 0 00-1.8.4zm204.5-129.7a4.207 4.207 0 00-4.3 4.3 4.369 4.369 0 004.6 4.1 3.961 3.961 0 003.8-4.4c-.1-2.5-1.7-4.1-4.1-4zm314.9 92.6a4.066 4.066 0 00-4.3 3.9 4.255 4.255 0 108.5.1 4 4 0 00-4.2-4zm13.7-51.5a4.042 4.042 0 004.3 4.3 3.912 3.912 0 003.4-1.8c-.7-2.1-1.4-4.3-2.1-6.4a5.9 5.9 0 00-1.4-.2 4.141 4.141 0 00-4.2 4.1zm-383.7 51.5a3.866 3.866 0 00-3.9 4 4.419 4.419 0 004.3 4.4 4.61 4.61 0 004.2-4.3 4.308 4.308 0 00-4.6-4.1zm-36.7 0a4.156 4.156 0 00-4.4 3.9 4.644 4.644 0 004.2 4.5 4.562 4.562 0 004.3-4.4 3.806 3.806 0 00-4.1-4zm350.5-55.6a3.938 3.938 0 00-4.1 4.1c-.1 2.5 1.7 4.2 4.3 4.2a3.938 3.938 0 004.1-4.1 4.016 4.016 0 00-4.3-4.2zm-106.4 4.4a4.483 4.483 0 00-4.3-4.4 3.707 3.707 0 00-3.8 2.6 59.008 59.008 0 015.7 5.5 4.207 4.207 0 002.4-3.7zm-341.2 36.9a3.865 3.865 0 003.9 4 3.974 3.974 0 004.5-4 4.069 4.069 0 00-4.2-4.3 3.87 3.87 0 00-4.2 4.3zm59.9 14.3a4.016 4.016 0 00-4 4.3c.2 2.2 2.3 4.2 4.3 4.1 2.1-.1 4.4-2.5 4.2-4.6a4.308 4.308 0 00-4.5-3.8zm17.8-10.3c2.6.1 4.4-1.4 4.5-4a3.92 3.92 0 00-4.1-4.4c-2.7 0-3.9 1.6-4.2 4a4.121 4.121 0 003.8 4.4zm167.4-138a4.508 4.508 0 00-4.5 4.3 4.141 4.141 0 004.2 4.1 4.025 4.025 0 004.3-4 4.522 4.522 0 00-4-4.4zm-185 82.6c2.1-.1 4.5-2.5 4.4-4.5s-2.4-4-4.5-4a4.52 4.52 0 00-4.1 4.3 4.362 4.362 0 004.2 4.2zm222-148a4.203 4.203 0 10-.3-8.4 4.022 4.022 0 00-4 4.5 4.066 4.066 0 004.3 3.9zm189.1 217.7c0-2-2.2-4-4.4-4a4.02 4.02 0 00-4.2 4.1c.1 2.2 2.1 4.3 4.1 4.3a5 5 0 004.5-4.4zm-207.8-96.7a4.309 4.309 0 00-4.7 4 4.439 4.439 0 004 4.4 4.611 4.611 0 004.5-3.9 4.287 4.287 0 00-3.8-4.5zm73.4 0c-2.6.1-3.9 1.7-4 4.2a3.941 3.941 0 004 4.2c2.3 0 4.5-2 4.4-4.2a4.271 4.271 0 00-4.4-4.2zm74.1 45.5a3.963 3.963 0 004.2-4.3 4.278 4.278 0 00-4.5-4.1 4.211 4.211 0 00.3 8.4zm-59.2-22.7a4.452 4.452 0 004.2 4.3 4.251 4.251 0 10-4.2-4.3zm-310.6-51.2a4.159 4.159 0 004.1-4.5 4 4 0 00-4.3-3.9 4.201 4.201 0 00.2 8.4zm69.6-4.5a4.206 4.206 0 108.4.4 3.948 3.948 0 00-3.9-4.3 4.182 4.182 0 00-4.5 3.9zm296.1.1a4.155 4.155 0 103.8-3.9 3.6 3.6 0 00-3.8 3.9zm-361.6 111.3a4.291 4.291 0 00-4-4.6 4.203 4.203 0 00-.3 8.4 3.921 3.921 0 004.3-3.8zm70 3.8a3.724 3.724 0 003.9-3.6c0-2.9-1.7-4.7-4-4.7a4.16 4.16 0 10.1 8.3zM337 92.504a4.61 4.61 0 00-4.3 4.2 4.135 4.135 0 004.1 4.2 4.015 4.015 0 004.4-3.8 4.449 4.449 0 00-4.2-4.6zm-32.6 4.5a4.278 4.278 0 00-4.1-4.5 4.33 4.33 0 00-4.3 4.3 3.937 3.937 0 004.1 4.1 4.066 4.066 0 004.3-3.9zm106.7 106.5a4.618 4.618 0 00-4.4 4.1 4.825 4.825 0 004.4 4.5 4.3 4.3 0 000-8.6zm91.7 18.5a4.226 4.226 0 00-4 4.6 4.209 4.209 0 104-4.6zm-365.5-32.7a4 4 0 00-4-4.2 4.211 4.211 0 00-4.4 4.2 4.2 4.2 0 108.4 0zm271.5 88.9h4.6a3.306 3.306 0 00-2.3-.7 4.176 4.176 0 00-2.3.7zm-127.7-240.9a4.206 4.206 0 00-4.2 4.1 4.788 4.788 0 004.2 4.3 4.9 4.9 0 004.4-4.4 4.306 4.306 0 00-4.4-4zm-202.8 63.5c2.2-.1 4.4-2 4.4-4s-2.5-4.4-4.5-4.3a4.706 4.706 0 00-4.1 4.4 3.866 3.866 0 004.2 3.9zm406.7 0c2.2 0 4.4-2 4.4-4a5 5 0 00-4.5-4.4 4.6 4.6 0 00-4.1 4.3 4.078 4.078 0 004.2 4.1zm-110.9 0a3.942 3.942 0 004.2-4 4.2 4.2 0 10-8.4-.1 3.964 3.964 0 004.2 4.1zm-221.9-8.3a4.275 4.275 0 00-4.1 4.2c0 2.5 1.3 3.9 3.7 4.1a4.188 4.188 0 004.7-3.9c.2-2.1-2-4.4-4.3-4.4zm203 27.1a4.355 4.355 0 004.2-4.5 4.219 4.219 0 00-4.4-3.9 3.892 3.892 0 00-3.9 4.3 3.935 3.935 0 004.1 4.1zm-74.1 0a4.355 4.355 0 004.2-4.5 4.206 4.206 0 10-4.2 4.5zm-73.9-8.4a4.2 4.2 0 10-.1 8.4c2.4 0 4-1.6 4.1-4.2a4 4 0 00-4-4.2zm130 55.3c-2.1 0-4.4 2-4.5 4a4.811 4.811 0 004.3 4.5 4.516 4.516 0 004.3-4.1 4.618 4.618 0 00-4.1-4.4zm202.9 63.8a3.882 3.882 0 004-3.6c0-2.8-1.7-4.7-3.9-4.8a4.233 4.233 0 00-4.5 4.2 4.044 4.044 0 004.4 4.2zM374 27.004a4 4 0 004.3-3.9 4.159 4.159 0 00-4.1-4.5 4.093 4.093 0 00-4.3 4.3 4.052 4.052 0 004.1 4.1zm-166.8 10.3a4.085 4.085 0 00-4.4 3.8 4.731 4.731 0 004.3 4.5 4.139 4.139 0 004.1-4.2 3.854 3.854 0 00-4-4.1zm203.7 63.5a4 4 0 004.2-4 4.452 4.452 0 00-4-4.4c-2 0-4.5 2.3-4.5 4.3a4.366 4.366 0 004.3 4.1zm14.1-59.5c0 2.3 1.8 4.4 3.9 4.4a4.7 4.7 0 004.5-3.8c-.7-.5-1.4-.9-2.1-1.4-1.4-.9-2.8-1.8-4.3-2.7a3.634 3.634 0 00-2 3.5zm-69.9 4.4a4.731 4.731 0 004.3-4.5 4.161 4.161 0 00-4.4-3.9 3.755 3.755 0 00-4 4.1c.1 2.5 1.9 4.4 4.1 4.3zm74.1 184.6a4.015 4.015 0 004.1-4.2 4.233 4.233 0 00-4.5-4.2 4.1 4.1 0 00-3.9 4.4 3.963 3.963 0 004.3 4zm55.9-63.8a4.606 4.606 0 00-4.3 4.2 4.53 4.53 0 004.2 4.3c2 0 4.4-2.2 4.4-4.1s-2.3-4.2-4.3-4.4zm-351.8-120.8a4.283 4.283 0 004-4.3 4.055 4.055 0 00-4.1-4.1 3.942 3.942 0 00-4.2 4 4.419 4.419 0 004.3 4.4zm277.7 195a4.213 4.213 0 00-4.3 4 4.811 4.811 0 004.5 4.3c2.1-.1 3.9-2.2 3.9-4.9a3.9 3.9 0 00-4.1-3.4zm-406.6 0a4.3 4.3 0 00-4.4 4c0 2.1 2.3 4.5 4.4 4.4a4.486 4.486 0 003.9-4.8 3.724 3.724 0 00-3.9-3.6zm406.6-65.7a4.3 4.3 0 004.1-4.3 4.362 4.362 0 00-4.2-4.2 4.25 4.25 0 00.1 8.5z" fill="#84b84c"/></svg>