<svg xmlns="http://www.w3.org/2000/svg" width="45.46" height="33.789"><path data-name="Path 145" d="M1.182 17.554a83.435 83.435 0 0014.85 12.672c1.213.8 2.446-.252 2.78-1.4 1.325-4.517 2.639-9.066 3.963-13.583a121.117 121.117 0 0112.178 7.134 1.911 1.911 0 002.78-1.4c.594-6.036.924-12.13.94-18.225.008-2.697-3.944-2.48-3.958.183a187.12 187.12 0 01-.616 14.128 120.348 120.348 0 00-11.734-6.55 1.927 1.927 0 00-2.78 1.4c-1.286 4.43-2.581 8.828-3.837 13.244A79.233 79.233 0 013.73 14.461c-1.836-1.99-4.368 1.136-2.549 3.093z" fill="#182b34"/></svg>