<svg xmlns="http://www.w3.org/2000/svg" width="207.852" height="117.394"><g fill="#85b94c"><path d="M195.292 0c-4.375 0-8.433 4.3-11.535 12-3.739 9.4-9.785 9.4-13.484 0-6.364-16-16.706-16-23.07 0-3.739 9.4-9.785 9.4-13.484 0-3.063-7.7-7.16-12-11.535-12s-8.433 4.3-11.535 12c-3.739 9.4-9.785 9.4-13.484 0-6.364-16-16.706-16-23.07 0-3.739 9.4-9.785 9.4-13.484 0-6.364-16-16.706-16-23.07 0-3.739 9.4-9.785 9.4-13.484 0-3.063-7.7-7.16-12-11.535-12S4.089 4.3.987 12a18.776 18.776 0 000 12c1.313 3.3 3.461 3.3 4.773 0 3.739-9.4 9.785-9.4 13.484 0 6.364 16 16.706 16 23.07 0 3.739-9.4 9.785-9.4 13.484 0 6.364 16 16.706 16 23.07 0 1.79-4.5 4.216-7 6.762-7s4.932 2.5 6.762 7c6.364 16 16.706 16 23.07 0 1.79-4.5 4.216-7 6.762-7s4.932 2.5 6.762 7c3.063 7.7 7.16 12 11.535 12s8.432-4.3 11.535-12c3.739-9.4 9.785-9.4 13.484 0 6.364 16 16.706 16 23.07 0 3.739-9.4 9.785-9.4 13.484 0 1.313 3.3 3.461 3.3 4.773 0a18.776 18.776 0 000-12c-3.102-7.8-7.199-12-11.575-12z"/><path d="M195.292 40.674c-4.375 0-8.433 4.3-11.535 12-3.739 9.4-9.785 9.4-13.484 0-6.364-16-16.706-16-23.07 0-3.739 9.4-9.785 9.4-13.484 0-3.063-7.7-7.16-12-11.535-12s-8.433 4.3-11.535 12c-3.739 9.4-9.785 9.4-13.484 0-6.364-16-16.706-16-23.07 0-3.739 9.4-9.785 9.4-13.484 0-6.364-16-16.706-16-23.07 0-3.739 9.4-9.785 9.4-13.484 0-3.063-7.7-7.16-12-11.535-12s-8.433 4.3-11.535 12a18.776 18.776 0 000 12c1.313 3.3 3.461 3.3 4.773 0 3.739-9.4 9.785-9.4 13.484 0 6.364 16 16.706 16 23.07 0 3.739-9.4 9.785-9.4 13.484 0 6.364 16 16.706 16 23.07 0 1.79-4.5 4.216-7 6.762-7s4.932 2.5 6.762 7c6.364 16 16.706 16 23.07 0 1.79-4.5 4.216-7 6.762-7s4.932 2.5 6.762 7c3.063 7.7 7.16 12 11.535 12s8.432-4.3 11.535-12c3.739-9.4 9.785-9.4 13.484 0 6.364 16 16.706 16 23.07 0 3.739-9.4 9.785-9.4 13.484 0 1.313 3.3 3.461 3.3 4.773 0a18.776 18.776 0 000-12c-3.102-7.7-7.199-12-11.575-12z"/><path d="M195.292 81.395c-4.375 0-8.433 4.3-11.535 12-3.739 9.4-9.785 9.4-13.484 0-6.364-16-16.706-16-23.07 0-3.739 9.4-9.785 9.4-13.484 0-3.063-7.7-7.16-12-11.535-12s-8.433 4.3-11.535 12c-3.739 9.4-9.785 9.4-13.484 0-6.364-16-16.706-16-23.07 0-3.739 9.4-9.785 9.4-13.484 0-6.364-16-16.706-16-23.07 0-3.739 9.4-9.785 9.4-13.484 0-3.063-7.7-7.16-12-11.535-12s-8.433 4.3-11.535 12a18.776 18.776 0 000 12c1.313 3.3 3.461 3.3 4.773 0 3.739-9.4 9.785-9.4 13.484 0 6.364 16 16.706 16 23.07 0 3.739-9.4 9.785-9.4 13.484 0 6.364 16 16.706 16 23.07 0 1.79-4.5 4.216-7 6.762-7s4.932 2.5 6.762 7c6.364 16 16.706 16 23.07 0 1.79-4.5 4.216-7 6.762-7s4.932 2.5 6.762 7c3.063 7.7 7.16 12 11.535 12s8.432-4.3 11.535-12c3.739-9.4 9.785-9.4 13.484 0 6.364 16 16.706 16 23.07 0 3.739-9.4 9.785-9.4 13.484 0 1.313 3.3 3.461 3.3 4.773 0a18.776 18.776 0 000-12c-3.102-7.7-7.199-12-11.575-12z"/></g></svg>