<svg xmlns="http://www.w3.org/2000/svg" width="78.458" height="49.864"><path data-name="Path 31" d="M1.918 21.932A134.042 134.042 0 0024.97 45.088c1.941 1.508 4.381 0 5.256-1.816 3.464-7.14 6.915-14.335 10.378-21.476A203.866 203.866 0 0160.32 35.474c1.664 1.334 4.716.162 5.255-1.815a298.062 298.062 0 006.2-29.552c.686-4.395-6.343-4.705-7.04-.365-1.24 7.714-2.746 15.312-4.607 22.926a203.774 203.774 0 00-19.077-12.65 3.636 3.636 0 00-5.256 1.816c-3.372 7.004-6.756 13.953-10.071 20.945A126.625 126.625 0 017.18 17.32c-2.737-3.551-7.986 1.116-5.262 4.612z"/></svg>